<svg viewBox="-42.686 -204.91 243.629 508.12" style="width: 100%; height: 100%;"><g class="d-note" transform="translate(0,0)"><ellipse rx="1.8626087206255928" ry="1.8626087206255928" fill="var(--c1)"></ellipse><text font-size="14.900869765004742" text-anchor="start" transform="rotate(0) translate(3.72522,5.2153)" style="fill: var(--c1);">a</text></g><g class="d-note" transform="translate(0,340.2)"><ellipse rx="1.8626087206255928" ry="1.8626087206255928" fill="var(--c1)"></ellipse><text font-size="14.900869765004742" text-anchor="start" transform="rotate(0) translate(3.72522,5.2153)" style="fill: var(--c1);">b</text></g><g class="d-note" transform="translate(0,425.25)"><ellipse rx="1.8626087206255928" ry="1.8626087206255928" fill="var(--c1)"></ellipse><text font-size="14.900869765004742" text-anchor="start" transform="rotate(0) translate(3.72522,5.2153)" style="fill: var(--c1);">c</text></g><g class="d-note" transform="translate(85.05,340.2)"><ellipse rx="1.8626087206255928" ry="1.8626087206255928" fill="var(--c1)"></ellipse><text font-size="14.900869765004742" text-anchor="start" transform="rotate(0) translate(3.72522,5.2153)" style="fill: var(--c1);">x</text></g><g class="d-note" transform="translate(218.64623,340.2)"><ellipse rx="1.8626087206255928" ry="1.8626087206255928" fill="var(--c1)"></ellipse><text font-size="14.900869765004742" text-anchor="start" transform="rotate(0) translate(3.72522,5.2153)" style="fill: var(--c1);">y</text></g><g class="d-note" transform="translate(692.44246,340.2)"><ellipse rx="1.8626087206255928" ry="1.8626087206255928" fill="var(--c1)"></ellipse><text font-size="14.900869765004742" text-anchor="start" transform="rotate(0) translate(3.72522,5.2153)" style="fill: var(--c1);">x1</text></g><g class="d-note" transform="translate(558.84623,340.2)"><ellipse rx="1.8626087206255928" ry="1.8626087206255928" fill="var(--c1)"></ellipse><text font-size="14.900869765004742" text-anchor="start" transform="rotate(0) translate(3.72522,5.2153)" style="fill: var(--c1);">y1</text></g><rect x="0" y="0" rx="85.05000000000001" ry="85.05000000000001" width="777.4924551878119" height="340.20000000000005" stroke-width="1.1175652323753558" style="stroke: var(--c1); fill: none;"></rect><rect x="0" y="425.25000000000006" rx="85.05000000000001" ry="85.05000000000001" width="510.3" height="607.392455187812" stroke-width="1.1175652323753558" style="stroke: var(--c1); fill: none;"></rect></svg>