<svg viewBox="-1109.182 -1058.032 2817.874 3228.739" style="width: 100%; height: 100%;"><g class="d-note" transform="translate(0,0)"><ellipse rx="10.737466041698845" ry="10.737466041698845" fill="var(--c1)"></ellipse><text font-size="85.89972833359076" text-anchor="start" transform="rotate(0) translate(21.47493,30.0649)" style="fill: var(--c1);">A</text></g><g class="d-note" transform="translate(0,1786.05)"><ellipse rx="10.737466041698845" ry="10.737466041698845" fill="var(--c1)"></ellipse><text font-size="85.89972833359076" text-anchor="start" transform="rotate(0) translate(21.47493,30.0649)" style="fill: var(--c1);">b</text></g><g class="d-note" transform="translate(581.175,0)"><ellipse rx="10.737466041698845" ry="10.737466041698845" fill="var(--c1)"></ellipse><text font-size="85.89972833359076" text-anchor="start" transform="rotate(0) translate(21.47493,30.0649)" style="fill: var(--c1);">c</text></g><g class="d-note" transform="translate(0,113.4)"><ellipse rx="10.737466041698845" ry="10.737466041698845" fill="var(--c1)"></ellipse><text font-size="85.89972833359076" text-anchor="start" transform="rotate(0) translate(21.47493,30.0649)" style="fill: var(--c1);">d</text></g><g class="d-note" transform="translate(742.06125,1786.05)"><ellipse rx="10.737466041698845" ry="10.737466041698845" fill="var(--c1)"></ellipse><text font-size="85.89972833359076" text-anchor="start" transform="rotate(0) translate(21.47493,30.0649)" style="fill: var(--c1);">z</text></g><g class="d-note" transform="translate(742.06125,1799.55169)"><ellipse rx="10.737466041698845" ry="10.737466041698845" fill="var(--c1)"></ellipse><text font-size="85.89972833359076" text-anchor="start" transform="rotate(0) translate(21.47493,30.0649)" style="fill: var(--c1);">f</text></g><g class="d-note" transform="translate(527.31,1786.05)"><ellipse rx="10.737466041698845" ry="10.737466041698845" fill="var(--c1)"></ellipse><text font-size="85.89972833359076" text-anchor="start" transform="rotate(0) translate(21.47493,30.0649)" style="fill: var(--c1);">g</text></g><g class="d-note" transform="translate(635.3235,1786.05)"><ellipse rx="10.737466041698845" ry="10.737466041698845" fill="var(--c1)"></ellipse><text font-size="85.89972833359076" text-anchor="start" transform="rotate(0) translate(21.47493,30.0649)" style="fill: var(--c1);">h</text></g><g class="d-note" transform="translate(581.31675,1786.05)"><ellipse rx="10.737466041698845" ry="10.737466041698845" fill="var(--c1)"></ellipse><text font-size="85.89972833359076" text-anchor="start" transform="rotate(0) translate(21.47493,30.0649)" style="fill: var(--c1);">i</text></g><g class="d-note" transform="translate(0,708.75)"><ellipse rx="10.737466041698845" ry="10.737466041698845" fill="var(--c1)"></ellipse><text font-size="85.89972833359076" text-anchor="start" transform="rotate(0) translate(21.47493,30.0649)" style="fill: var(--c1);">j</text></g><g class="d-note" transform="translate(581.31675,708.75)"><ellipse rx="10.737466041698845" ry="10.737466041698845" fill="var(--c1)"></ellipse><text font-size="85.89972833359076" text-anchor="start" transform="rotate(0) translate(21.47493,30.0649)" style="fill: var(--c1);">l</text></g><g class="d-note" transform="translate(581.31675,762.75675)"><ellipse rx="10.737466041698845" ry="10.737466041698845" fill="var(--c1)"></ellipse><text font-size="85.89972833359076" text-anchor="start" transform="rotate(0) translate(21.47493,30.0649)" style="fill: var(--c1);">m</text></g><g class="d-note" transform="translate(581.175,97.20121)"><ellipse rx="10.737466041698845" ry="10.737466041698845" fill="var(--c1)"></ellipse><text font-size="85.89972833359076" text-anchor="start" transform="rotate(0) translate(21.47493,30.0649)" style="fill: var(--c1);">n</text></g><g class="d-note" transform="translate(345.26517,0)"><ellipse rx="10.737466041698845" ry="10.737466041698845" fill="var(--c1)"></ellipse><text font-size="85.89972833359076" text-anchor="start" transform="rotate(0) translate(21.47493,30.0649)" style="fill: var(--c1);">o</text></g><g class="d-note" transform="translate(298.54131,113.4)"><ellipse rx="10.737466041698845" ry="10.737466041698845" fill="var(--c1)"></ellipse><text font-size="85.89972833359076" text-anchor="start" transform="rotate(0) translate(21.47493,30.0649)" style="fill: var(--c1);">p</text></g><g class="d-note" transform="translate(279.44704,94.30573)"><ellipse rx="10.737466041698845" ry="10.737466041698845" fill="var(--c1)"></ellipse><text font-size="85.89972833359076" text-anchor="start" transform="rotate(0) translate(21.47493,30.0649)" style="fill: var(--c1);">q</text></g><g class="d-note" transform="translate(842.06588,708.75)"><ellipse rx="10.737466041698845" ry="10.737466041698845" fill="var(--c1)"></ellipse><text font-size="85.89972833359076" text-anchor="start" transform="rotate(0) translate(21.47493,30.0649)" style="fill: var(--c1);">k</text></g><g class="d-note" transform="translate(842.06588,744.7545)"><ellipse rx="10.737466041698845" ry="10.737466041698845" fill="var(--c1)"></ellipse><text font-size="85.89972833359076" text-anchor="start" transform="rotate(0) translate(21.47493,30.0649)" style="fill: var(--c1);">v</text></g><g class="d-note" transform="translate(0,465.08175)"><ellipse rx="10.737466041698845" ry="10.737466041698845" fill="var(--c1)"></ellipse><text font-size="85.89972833359076" text-anchor="start" transform="rotate(0) translate(21.47493,30.0649)" style="fill: var(--c1);">w</text></g><g class="d-note" transform="translate(567,465.08175)"><ellipse rx="10.737466041698845" ry="10.737466041698845" fill="var(--c1)"></ellipse><text font-size="85.89972833359076" text-anchor="start" transform="rotate(0) translate(21.47493,30.0649)" style="fill: var(--c1);">X</text></g><g class="d-note" transform="translate(-465.71106,423.53233)"><ellipse rx="10.737466041698845" ry="10.737466041698845" fill="var(--c1)"></ellipse><text font-size="85.89972833359076" text-anchor="start" transform="rotate(0) translate(21.47493,30.0649)" style="fill: var(--c1);">t1</text></g><g class="d-note" transform="translate(-606.05585,700.93732)"><ellipse rx="10.737466041698845" ry="10.737466041698845" fill="var(--c1)"></ellipse><text font-size="85.89972833359076" text-anchor="start" transform="rotate(0) translate(21.47493,30.0649)" style="fill: var(--c1);">t2</text></g><g class="d-note" transform="translate(0,1786.05)"><path d="M0,0c0,0,0,-1672.65,0,-1672.65" stroke-width="6.442479625019306" style="stroke: var(--c1);" fill="none" stroke="black"></path></g><path d="M0,113.4C298.54131,113.4,298.54131,113.4,345.26517,0" stroke-width="6.442479625019306" style="stroke: var(--c1); fill: none;" fill="none" stroke="black"></path><g class="d-note" transform="translate(345.26517,0)"><path d="M0,0c0,0,235.90983,97.20121,235.90983,97.20121" stroke-width="6.442479625019306" style="stroke: var(--c1);" fill="none" stroke="black"></path></g><path d="M581.175,97.20121C553.74266,163.78021,555.31576,717.56791,842.06588,744.7545" stroke-width="6.442479625019306" style="stroke: var(--c1); fill: none;" fill="none" stroke="black"></path><g class="d-note" transform="translate(842.06588,744.7545)"><path d="M0,0c0,0,-100.00462,1054.79719,-100.00462,1054.79719" stroke-width="6.442479625019306" style="stroke: var(--c1);" fill="none" stroke="black"></path></g><g class="d-note" transform="translate(742.06125,1799.55169)"><path d="M0,0c0,0,-106.73775,-13.50169,-106.73775,-13.50169" stroke-width="6.442479625019306" style="stroke: var(--c1);" fill="none" stroke="black"></path></g><g class="d-note" transform="translate(527.31,1786.05)"><path d="M0,0c0,0,-527.31,0,-527.31,0" stroke-width="6.442479625019306" style="stroke: var(--c1);" fill="none" stroke="black"></path></g><g class="d-note" transform="translate(527.31,1786.05)"><path d="M0,0c0,0,54.00675,-1023.29325,54.00675,-1023.29325" stroke-width="6.442479625019306" style="stroke: var(--c1);" fill="none" stroke="black"></path></g><g class="d-note" transform="translate(635.3235,1786.05)"><path d="M0,0c0,0,-54.00675,-1023.29325,-54.00675,-1023.29325" stroke-width="6.442479625019306" style="stroke: var(--c1);" fill="none" stroke="black"></path></g><g class="d-note" transform="translate(0,1757.7)"><ellipse rx="10.737466041698845" ry="10.737466041698845" fill="var(--c1)"></ellipse><text font-size="85.89972833359076" text-anchor="start" transform="rotate(0) translate(21.47493,30.0649)" style="fill: var(--c1);">B</text></g><g class="d-note" transform="translate(-552.825,0)"><ellipse rx="10.737466041698845" ry="10.737466041698845" fill="var(--c1)"></ellipse><text font-size="85.89972833359076" text-anchor="start" transform="rotate(0) translate(21.47493,30.0649)" style="fill: var(--c1);">C</text></g><g class="d-note" transform="translate(0,311.85)"><ellipse rx="10.737466041698845" ry="10.737466041698845" fill="var(--c1)"></ellipse><text font-size="85.89972833359076" text-anchor="start" transform="rotate(0) translate(21.47493,30.0649)" style="fill: var(--c1);">D</text></g><g class="d-note" transform="translate(0,311.85)"><path d="M0,0c0,0,-288.036,0,-288.036,0" stroke-width="6.442479625019306" style="stroke: var(--c1);" fill="none" stroke="black"></path></g><g class="d-note" transform="translate(-552.825,59.35989)"><ellipse rx="10.737466041698845" ry="10.737466041698845" fill="var(--c1)"></ellipse><text font-size="85.89972833359076" text-anchor="start" transform="rotate(0) translate(21.47493,30.0649)" style="fill: var(--c1);">E</text></g><g class="d-note" transform="translate(-304.676,0)"><ellipse rx="10.737466041698845" ry="10.737466041698845" fill="var(--c1)"></ellipse><text font-size="85.89972833359076" text-anchor="start" transform="rotate(0) translate(21.47493,30.0649)" style="fill: var(--c1);">F</text></g><g class="d-note" transform="translate(-230.07815,311.85)"><ellipse rx="10.737466041698845" ry="10.737466041698845" fill="var(--c1)"></ellipse><text font-size="85.89972833359076" text-anchor="start" transform="rotate(0) translate(21.47493,30.0649)" style="fill: var(--c1);">G</text></g><g class="d-note" transform="translate(-204.61912,286.39097)"><ellipse rx="10.737466041698845" ry="10.737466041698845" fill="var(--c1)"></ellipse><text font-size="85.89972833359076" text-anchor="start" transform="rotate(0) translate(21.47493,30.0649)" style="fill: var(--c1);">H</text></g><g class="d-note" transform="translate(-552.825,683.05989)"><ellipse rx="10.737466041698845" ry="10.737466041698845" fill="var(--c1)"></ellipse><text font-size="85.89972833359076" text-anchor="start" transform="rotate(0) translate(21.47493,30.0649)" style="fill: var(--c1);">I</text></g><g class="d-note" transform="translate(-552.825,827.07789)"><ellipse rx="10.737466041698845" ry="10.737466041698845" fill="var(--c1)"></ellipse><text font-size="85.89972833359076" text-anchor="start" transform="rotate(0) translate(21.47493,30.0649)" style="fill: var(--c1);">J</text></g><g class="d-note" transform="translate(-552.825,443.21889)"><ellipse rx="10.737466041698845" ry="10.737466041698845" fill="var(--c1)"></ellipse><text font-size="85.89972833359076" text-anchor="start" transform="rotate(0) translate(21.47493,30.0649)" style="fill: var(--c1);">K</text></g><g class="d-note" transform="translate(0,443.21889)"><ellipse rx="10.737466041698845" ry="10.737466041698845" fill="var(--c1)"></ellipse><text font-size="85.89972833359076" text-anchor="start" transform="rotate(0) translate(21.47493,30.0649)" style="fill: var(--c1);">L</text></g><g class="d-note" transform="translate(-516.8205,443.21889)"><ellipse rx="10.737466041698845" ry="10.737466041698845" fill="var(--c1)"></ellipse><text font-size="85.89972833359076" text-anchor="start" transform="rotate(0) translate(21.47493,30.0649)" style="fill: var(--c1);">M</text></g><g class="d-note" transform="translate(-315.9,787.21994)"><ellipse rx="10.737466041698845" ry="10.737466041698845" fill="var(--c1)"></ellipse><text font-size="85.89972833359076" text-anchor="start" transform="rotate(0) translate(21.47493,30.0649)" style="fill: var(--c1);">N</text></g><g class="d-note" transform="translate(0,787.21994)"><ellipse rx="10.737466041698845" ry="10.737466041698845" fill="var(--c1)"></ellipse><text font-size="85.89972833359076" text-anchor="start" transform="rotate(0) translate(21.47493,30.0649)" style="fill: var(--c1);">O</text></g><g class="d-note" transform="translate(-527.31,787.21994)"><ellipse rx="10.737466041698845" ry="10.737466041698845" fill="var(--c1)"></ellipse><text font-size="85.89972833359076" text-anchor="start" transform="rotate(0) translate(21.47493,30.0649)" style="fill: var(--c1);">P</text></g><g class="d-note" transform="translate(-812.28867,827.07789)"><ellipse rx="10.737466041698845" ry="10.737466041698845" fill="var(--c1)"></ellipse><text font-size="85.89972833359076" text-anchor="start" transform="rotate(0) translate(21.47493,30.0649)" style="fill: var(--c1);">Q</text></g><g class="d-note" transform="translate(-824.33179,683.05989)"><ellipse rx="10.737466041698845" ry="10.737466041698845" fill="var(--c1)"></ellipse><text font-size="85.89972833359076" text-anchor="start" transform="rotate(0) translate(21.47493,30.0649)" style="fill: var(--c1);">R</text></g><g class="d-note" transform="translate(-734.5588,1756.61292)"><ellipse rx="10.737466041698845" ry="10.737466041698845" fill="var(--c1)"></ellipse><text font-size="85.89972833359076" text-anchor="start" transform="rotate(0) translate(21.47493,30.0649)" style="fill: var(--c1);">S</text></g><g class="d-note" transform="translate(-821.33149,718.93916)"><ellipse rx="10.737466041698845" ry="10.737466041698845" fill="var(--c1)"></ellipse><text font-size="85.89972833359076" text-anchor="start" transform="rotate(0) translate(21.47493,30.0649)" style="fill: var(--c1);">T</text></g><g class="d-note" transform="translate(-527.31,1757.7)"><ellipse rx="10.737466041698845" ry="10.737466041698845" fill="var(--c1)"></ellipse><text font-size="85.89972833359076" text-anchor="start" transform="rotate(0) translate(21.47493,30.0649)" style="fill: var(--c1);">U</text></g><g class="d-note" transform="translate(-857.21076,721.93947)"><ellipse rx="10.737466041698845" ry="10.737466041698845" fill="var(--c1)"></ellipse><text font-size="85.89972833359076" text-anchor="start" transform="rotate(0) translate(21.47493,30.0649)" style="fill: var(--c1);">Y</text></g><g class="d-note" transform="translate(-527.31,1771.20169)"><ellipse rx="10.737466041698845" ry="10.737466041698845" fill="var(--c1)"></ellipse><text font-size="85.89972833359076" text-anchor="start" transform="rotate(0) translate(21.47493,30.0649)" style="fill: var(--c1);">V</text></g><g class="d-note" transform="translate(-628.25692,1764.09578)"><ellipse rx="10.737466041698845" ry="10.737466041698845" fill="var(--c1)"></ellipse><text font-size="85.89972833359076" text-anchor="start" transform="rotate(0) translate(21.47493,30.0649)" style="fill: var(--c1);">W</text></g><g class="d-note" transform="translate(-628.45263,1765.9897)"><ellipse rx="10.737466041698845" ry="10.737466041698845" fill="var(--c1)"></ellipse><text font-size="85.89972833359076" text-anchor="start" transform="rotate(0) translate(21.47493,30.0649)" style="fill: var(--c1);">x</text></g><path d="M-304.676,0C-241.26783,265.0725,-230.07815,311.85,0,311.85" stroke-width="6.442479625019306" style="stroke: var(--c1); fill: none;" fill="none" stroke="black"></path><g class="d-note" transform="translate(-304.676,0)"><path d="M0,0c0,0,-248.149,59.35989,-248.149,59.35989" stroke-width="6.442479625019306" style="stroke: var(--c1);" fill="none" stroke="black"></path></g><g class="d-note" transform="translate(-436.24462,-1.64858)"><text font-size="85.89972833359076" text-anchor="middle" transform="rotate(166.54703570610138) translate(0,30.0649)" style="fill: var(--c1);">ef</text></g><path d="M-552.825,59.35989C-465.71106,423.53233,-606.05585,700.93732,-857.21076,721.93947" stroke-width="6.442479625019306" style="stroke: var(--c1); fill: none;" fill="none" stroke="black"></path><g class="d-note" transform="translate(-857.21076,721.93947)"><path d="M0,0c0,0,122.65196,1034.67345,122.65196,1034.67345" stroke-width="6.442479625019306" style="stroke: var(--c1);" fill="none" stroke="black"></path></g><g class="d-note" transform="translate(-827.87321,1243.06816)"><text font-size="85.89972833359076" text-anchor="middle" transform="rotate(83.23960868697328) translate(0,30.0649)" style="fill: var(--c1);">ys</text></g><g class="d-note" transform="translate(-734.5588,1756.61292)"><path d="M0,0c0,0,106.10617,9.37678,106.10617,9.37678" stroke-width="6.442479625019306" style="stroke: var(--c1);" fill="none" stroke="black"></path></g><g class="d-note" transform="translate(-684.34133,1793.38866)"><text font-size="85.89972833359076" text-anchor="middle" transform="rotate(5.050206817119454) translate(0,30.0649)" style="fill: var(--c1);">sx</text></g><g class="d-note" transform="translate(-527.31,1771.20169)"><path d="M0,0c0,0,527.31,-13.50169,527.31,-13.50169" stroke-width="6.442479625019306" style="stroke: var(--c1);" fill="none" stroke="black"></path></g><g class="d-note" transform="translate(-264.47952,1796.65269)"><text font-size="85.89972833359076" text-anchor="middle" transform="rotate(1.4667287161715723) translate(0,30.0649)" style="fill: var(--c1);">vb</text></g><g class="d-note" transform="translate(0,1757.7)"><path d="M0,0c0,0,0,-1445.85,0,-1445.85" stroke-width="6.442479625019306" style="stroke: var(--c1);" fill="none" stroke="black"></path></g><g class="d-note" transform="translate(-32.2124,1034.775)"><text font-size="85.89972833359076" text-anchor="middle" transform="rotate(90.00000000000462) translate(0,30.0649)" style="fill: var(--c1);">bd</text></g><g class="d-note" transform="translate(-628.45263,1765.9897)"><path d="M0,0c0,0,101.14263,-978.76976,101.14263,-978.76976" stroke-width="6.442479625019306" style="stroke: var(--c1);" fill="none" stroke="black"></path></g><g class="d-note" transform="translate(-609.92309,1279.9159)"><text font-size="85.89972833359076" text-anchor="middle" transform="rotate(84.10019600147997) translate(0,30.0649)" style="fill: var(--c1);">xp</text></g><g class="d-note" transform="translate(-527.31,787.21994)"><path d="M0,0c0,0,0,983.98175,0,983.98175" stroke-width="6.442479625019306" style="stroke: var(--c1);" fill="none" stroke="black"></path></g><g class="d-note" transform="translate(-559.5224,1279.21081)"><text font-size="85.89972833359076" text-anchor="middle" transform="rotate(90) translate(0,30.0649)" style="fill: var(--c1);">pv</text></g></svg>