<svg viewBox="-1599.085 -1276.553 3097.17 4508.668" style="width: 100%; height: 100%;"><g class="d-note" transform="translate(1317.2625,0)"><ellipse rx="12.693321187212028" ry="12.693321187212028" fill="var(--c1)"></ellipse><text font-size="101.54656949769623" text-anchor="start" transform="rotate(0) translate(25.38664,35.5413)" style="fill: var(--c1);">A</text></g><g class="d-note" transform="translate(1317.2625,680.4)"><ellipse rx="12.693321187212028" ry="12.693321187212028" fill="var(--c1)"></ellipse><text font-size="101.54656949769623" text-anchor="start" transform="rotate(0) translate(25.38664,35.5413)" style="fill: var(--c1);">B</text></g><g class="d-note" transform="translate(500.5125,680.4)"><ellipse rx="12.693321187212028" ry="12.693321187212028" fill="var(--c1)"></ellipse><text font-size="101.54656949769623" text-anchor="start" transform="rotate(0) translate(25.38664,35.5413)" style="fill: var(--c1);">C</text></g><g class="d-note" transform="translate(92.1375,680.4)"><ellipse rx="12.693321187212028" ry="12.693321187212028" fill="var(--c1)"></ellipse><text font-size="101.54656949769623" text-anchor="start" transform="rotate(0) translate(25.38664,35.5413)" style="fill: var(--c1);">x</text></g><g class="d-note" transform="translate(500.5125,0)"><ellipse rx="12.693321187212028" ry="12.693321187212028" fill="var(--c1)"></ellipse><text font-size="101.54656949769623" text-anchor="start" transform="rotate(0) translate(25.38664,35.5413)" style="fill: var(--c1);">D</text></g><g class="d-note" transform="translate(1317.2625,340.2)"><ellipse rx="12.693321187212028" ry="12.693321187212028" fill="var(--c1)"></ellipse><text font-size="101.54656949769623" text-anchor="start" transform="rotate(0) translate(25.38664,35.5413)" style="fill: var(--c1);">F</text></g><g class="d-note" transform="translate(500.5125,340.2)"><ellipse rx="12.693321187212028" ry="12.693321187212028" fill="var(--c1)"></ellipse><text font-size="101.54656949769623" text-anchor="start" transform="rotate(0) translate(25.38664,35.5413)" style="fill: var(--c1);">G</text></g><g class="d-note" transform="translate(-1066.635,0)"><ellipse rx="12.693321187212028" ry="12.693321187212028" fill="var(--c1)"></ellipse><text font-size="101.54656949769623" text-anchor="start" transform="rotate(0) translate(25.38664,35.5413)" style="fill: var(--c1);">d</text></g><g class="d-note" transform="translate(-1155.465,680.4)"><ellipse rx="12.693321187212028" ry="12.693321187212028" fill="var(--c1)"></ellipse><text font-size="101.54656949769623" text-anchor="start" transform="rotate(0) translate(25.38664,35.5413)" style="fill: var(--c1);">c</text></g><g class="d-note" transform="translate(-841.1175,680.4)"><ellipse rx="12.693321187212028" ry="12.693321187212028" fill="var(--c1)"></ellipse><text font-size="101.54656949769623" text-anchor="start" transform="rotate(0) translate(25.38664,35.5413)" style="fill: var(--c1);">j1</text></g><g class="d-note" transform="translate(-472.5675,680.4)"><ellipse rx="12.693321187212028" ry="12.693321187212028" fill="var(--c1)"></ellipse><text font-size="101.54656949769623" text-anchor="start" transform="rotate(0) translate(25.38664,35.5413)" style="fill: var(--c1);">j2</text></g><g class="d-note" transform="translate(653.67,25.515)"><ellipse rx="12.693321187212028" ry="12.693321187212028" fill="var(--c1)"></ellipse><text font-size="101.54656949769623" text-anchor="start" transform="rotate(0) translate(25.38664,35.5413)" style="fill: var(--c1);">d1</text></g><g class="d-note" transform="translate(738.72,25.515)"><ellipse rx="12.693321187212028" ry="12.693321187212028" fill="var(--c1)"></ellipse><text font-size="101.54656949769623" text-anchor="start" transform="rotate(0) translate(25.38664,35.5413)" style="fill: var(--c1);">d2</text></g><g class="d-note" transform="translate(1289.8575,0)"><ellipse rx="12.693321187212028" ry="12.693321187212028" fill="var(--c1)"></ellipse><text font-size="101.54656949769623" text-anchor="start" transform="rotate(0) translate(25.38664,35.5413)" style="fill: var(--c1);">a</text></g><g class="d-note" transform="translate(-656.8425,680.4)"><ellipse rx="12.693321187212028" ry="12.693321187212028" fill="var(--c1)"></ellipse><text font-size="101.54656949769623" text-anchor="start" transform="rotate(0) translate(25.38664,35.5413)" style="fill: var(--c1);">q</text></g><path d="M-1066.635,0C-964.575,13.3245,-841.1175,22.68,-841.1175,22.68" stroke-width="7.615992712327216" style="stroke: var(--c1); fill: none;" fill="none" stroke="black"></path><path d="M-472.5675,22.68C-472.5675,22.68,-121.095,5.7105,-19.035,0" stroke-width="7.615992712327216" style="stroke: var(--c1); fill: none;" fill="none" stroke="black"></path><path d="M-1296.675,680.4C-1166.7375,680.4,-1142.1405,578.34,-1111.05,340.2" stroke-width="7.615992712327216" style="stroke: var(--c1); fill: none;" fill="none" stroke="black"></path><g class="d-note" transform="translate(-1111.05,340.2)"><path d="M0,0c0,0,44.415,-340.2,44.415,-340.2" stroke-width="7.615992712327216" style="stroke: var(--c1);" fill="none" stroke="black"></path></g><path d="M0,340.2C0,108.864,-19.035,0,-19.035,0" stroke-width="7.615992712327216" style="stroke: var(--c1); fill: none;" fill="none" stroke="black"></path><g class="d-note" transform="translate(-841.1175,1304.1)"><ellipse rx="12.693321187212028" ry="12.693321187212028" fill="var(--c1)"></ellipse><text font-size="101.54656949769623" text-anchor="start" transform="rotate(0) translate(25.38664,35.5413)" style="fill: var(--c1);">K1</text></g><g class="d-note" transform="translate(-472.5675,1304.1)"><ellipse rx="12.693321187212028" ry="12.693321187212028" fill="var(--c1)"></ellipse><text font-size="101.54656949769623" text-anchor="start" transform="rotate(0) translate(25.38664,35.5413)" style="fill: var(--c1);">K2</text></g><g class="d-note" transform="translate(-1181.3175,1304.1)"><ellipse rx="12.693321187212028" ry="12.693321187212028" fill="var(--c1)"></ellipse><text font-size="101.54656949769623" text-anchor="start" transform="rotate(0) translate(25.38664,35.5413)" style="fill: var(--c1);">k1</text></g><g class="d-note" transform="translate(-132.3675,1304.1)"><ellipse rx="12.693321187212028" ry="12.693321187212028" fill="var(--c1)"></ellipse><text font-size="101.54656949769623" text-anchor="start" transform="rotate(0) translate(25.38664,35.5413)" style="fill: var(--c1);">k2</text></g><g class="d-note" transform="translate(-1181.3175,975.5235)"><ellipse rx="12.693321187212028" ry="12.693321187212028" fill="var(--c1)"></ellipse><text font-size="101.54656949769623" text-anchor="start" transform="rotate(0) translate(25.38664,35.5413)" style="fill: var(--c1);">tg1</text></g><path d="M-1181.3175,1304.1C-1181.3175,975.5235,-1296.675,680.4,-1296.675,680.4" stroke-width="7.615992712327216" style="stroke: var(--c1); fill: none;" fill="none" stroke="black"></path><g class="d-note" transform="translate(1300.2525,680.4)"><ellipse rx="12.693321187212028" ry="12.693321187212028" fill="var(--c1)"></ellipse><text font-size="101.54656949769623" text-anchor="start" transform="rotate(0) translate(25.38664,35.5413)" style="fill: var(--c1);">m</text></g><g class="d-note" transform="translate(-132.3675,975.5235)"><ellipse rx="12.693321187212028" ry="12.693321187212028" fill="var(--c1)"></ellipse><text font-size="101.54656949769623" text-anchor="start" transform="rotate(0) translate(25.38664,35.5413)" style="fill: var(--c1);">tg2</text></g><g class="d-note" transform="translate(-132.3675,975.5235)"><ellipse rx="12.693321187212028" ry="12.693321187212028" fill="var(--c1)"></ellipse><text font-size="101.54656949769623" text-anchor="start" transform="rotate(0) translate(25.38664,35.5413)" style="fill: var(--c1);">tg3</text></g><path d="M-132.3675,1304.1C-132.3675,975.5235,0,578.34,0,340.2" stroke-width="7.615992712327216" style="stroke: var(--c1); fill: none;" fill="none" stroke="black"></path><g class="d-note" transform="translate(-732.81313,1294.6246)"><ellipse rx="12.693321187212028" ry="12.693321187212028" fill="var(--c1)"></ellipse><text font-size="101.54656949769623" text-anchor="start" transform="rotate(0) translate(25.38664,35.5413)" style="fill: var(--c1);">h1</text></g><g class="d-note" transform="translate(-580.87187,1294.6246)"><ellipse rx="12.693321187212028" ry="12.693321187212028" fill="var(--c1)"></ellipse><text font-size="101.54656949769623" text-anchor="start" transform="rotate(0) translate(25.38664,35.5413)" style="fill: var(--c1);">h2</text></g><path d="M-841.1175,22.68C-841.1175,680.4,-841.1175,680.4,-732.81313,1294.6246" stroke-width="7.615992712327216" style="stroke: var(--c1); fill: none;" fill="none" stroke="black"></path><path d="M-472.5675,22.68C-472.5675,680.4,-472.5675,680.4,-580.87187,1294.6246" stroke-width="7.615992712327216" style="stroke: var(--c1); fill: none;" fill="none" stroke="black"></path><path d="M-841.1175,1304.1A623.7,623.7,0,0,0,-732.81313,1294.6246" stroke-width="7.615992712327216" style="stroke: var(--c1); fill: none;" fill="none" stroke="black"></path><path d="M-580.87187,1294.6246A623.7,623.7,0,0,0,-472.5675,1304.1" stroke-width="7.615992712327216" style="stroke: var(--c1); fill: none;" fill="none" stroke="black"></path><g class="d-note" transform="translate(-1181.3175,1304.1)"><path d="M0,0c0,0,340.2,0,340.2,0" stroke-width="7.615992712327216" style="stroke: var(--c1);" fill="none" stroke="black"></path></g><g class="d-note" transform="translate(-472.5675,1304.1)"><path d="M0,0c0,0,340.2,0,340.2,0" stroke-width="7.615992712327216" style="stroke: var(--c1);" fill="none" stroke="black"></path></g><g class="d-note" transform="translate(-1181.3175,1360.8)"><ellipse rx="12.693321187212028" ry="12.693321187212028" fill="var(--c1)"></ellipse><text font-size="101.54656949769623" text-anchor="start" transform="rotate(0) translate(25.38664,35.5413)" style="fill: var(--c1);">l1</text></g><g class="d-note" transform="translate(-841.1175,1360.8)"><ellipse rx="12.693321187212028" ry="12.693321187212028" fill="var(--c1)"></ellipse><text font-size="101.54656949769623" text-anchor="start" transform="rotate(0) translate(25.38664,35.5413)" style="fill: var(--c1);">L1</text></g><g class="d-note" transform="translate(-1181.3175,2324.7)"><ellipse rx="12.693321187212028" ry="12.693321187212028" fill="var(--c1)"></ellipse><text font-size="101.54656949769623" text-anchor="start" transform="rotate(0) translate(25.38664,35.5413)" style="fill: var(--c1);">m1</text></g><g class="d-note" transform="translate(-841.1175,2324.7)"><ellipse rx="12.693321187212028" ry="12.693321187212028" fill="var(--c1)"></ellipse><text font-size="101.54656949769623" text-anchor="start" transform="rotate(0) translate(25.38664,35.5413)" style="fill: var(--c1);">M1</text></g><g class="d-note" transform="translate(-732.49256,1366.9402)"><ellipse rx="12.693321187212028" ry="12.693321187212028" fill="var(--c1)"></ellipse><text font-size="101.54656949769623" text-anchor="start" transform="rotate(0) translate(25.38664,35.5413)" style="fill: var(--c1);">n1</text></g><g class="d-note" transform="translate(-1181.3175,1360.8)"><path d="M0,0c0,0,0,963.9,0,963.9" stroke-width="7.615992712327216" style="stroke: var(--c1);" fill="none" stroke="black"></path></g><path d="M-732.49256,1366.9402A963.9,963.9,0,0,0,-841.1175,1360.8" stroke-width="7.615992712327216" style="stroke: var(--c1); fill: none;" fill="none" stroke="black"></path><g class="d-note" transform="translate(-1181.3175,1360.8)"><path d="M0,0c0,0,340.2,0,340.2,0" stroke-width="7.615992712327216" style="stroke: var(--c1);" fill="none" stroke="black"></path></g><path d="M-732.49256,1366.9402C-775.94253,1750.04412,-841.1175,2131.92,-841.1175,2324.7" stroke-width="7.615992712327216" style="stroke: var(--c1); fill: none;" fill="none" stroke="black"></path><g class="d-note" transform="translate(-1181.3175,2324.7)"><path d="M0,0c0,0,340.2,0,340.2,0" stroke-width="7.615992712327216" style="stroke: var(--c1);" fill="none" stroke="black"></path></g><g class="d-note" transform="translate(-132.3675,1360.8)"><ellipse rx="12.693321187212028" ry="12.693321187212028" fill="var(--c1)"></ellipse><text font-size="101.54656949769623" text-anchor="start" transform="rotate(0) translate(25.38664,35.5413)" style="fill: var(--c1);">l2</text></g><rect x="-274.11749999999995" y="1360.8000000000002" rx="1" ry="1" width="141.75" height="898.112370893773" stroke-width="7.615992712327216" style="stroke: var(--c1); fill: none;" fill="none" stroke="black"></rect><g class="d-note" transform="translate(551.4075,0)"><ellipse rx="12.693321187212028" ry="12.693321187212028" fill="var(--c1)"></ellipse><text font-size="101.54656949769623" text-anchor="start" transform="rotate(0) translate(25.38664,35.5413)" style="fill: var(--c1);">h</text></g><g class="d-note" transform="translate(449.6175,680.4)"><ellipse rx="12.693321187212028" ry="12.693321187212028" fill="var(--c1)"></ellipse><text font-size="101.54656949769623" text-anchor="start" transform="rotate(0) translate(25.38664,35.5413)" style="fill: var(--c1);">i</text></g><g class="d-note" transform="translate(696.195,680.4)"><ellipse rx="12.693321187212028" ry="12.693321187212028" fill="var(--c1)"></ellipse><text font-size="101.54656949769623" text-anchor="start" transform="rotate(0) translate(25.38664,35.5413)" style="fill: var(--c1);">j</text></g><g class="d-note" transform="translate(696.195,365.715)"><ellipse rx="12.693321187212028" ry="12.693321187212028" fill="var(--c1)"></ellipse><text font-size="101.54656949769623" text-anchor="start" transform="rotate(0) translate(25.38664,35.5413)" style="fill: var(--c1);">d3</text></g><g class="d-note" transform="translate(696.195,2409.75)"><ellipse rx="12.693321187212028" ry="12.693321187212028" fill="var(--c1)"></ellipse><text font-size="101.54656949769623" text-anchor="start" transform="rotate(0) translate(25.38664,35.5413)" style="fill: var(--c1);">E</text></g><g class="d-note" transform="translate(327.645,2409.75)"><ellipse rx="12.693321187212028" ry="12.693321187212028" fill="var(--c1)"></ellipse><text font-size="101.54656949769623" text-anchor="start" transform="rotate(0) translate(25.38664,35.5413)" style="fill: var(--c1);">e1</text></g><g class="d-note" transform="translate(1064.745,2409.75)"><ellipse rx="12.693321187212028" ry="12.693321187212028" fill="var(--c1)"></ellipse><text font-size="101.54656949769623" text-anchor="start" transform="rotate(0) translate(25.38664,35.5413)" style="fill: var(--c1);">e2</text></g><path d="M327.645,2409.75C327.645,1545.075,92.1375,680.4,92.1375,680.4" stroke-width="7.615992712327216" style="stroke: var(--c1); fill: none;" fill="none" stroke="black"></path><path d="M1064.745,2409.75C1064.745,1545.075,1300.2525,680.4,1300.2525,680.4" stroke-width="7.615992712327216" style="stroke: var(--c1); fill: none;" fill="none" stroke="black"></path><path d="M1317.2625,340.2C1317.2625,952.56,1064.745,1372.14,1064.745,2409.75" stroke-width="7.615992712327216" style="stroke: var(--c1); fill: none;" fill="none" stroke="black"></path><path d="M1317.2625,340.2C1317.2625,108.864,1289.8575,0,1289.8575,0" stroke-width="7.615992712327216" style="stroke: var(--c1); fill: none;" fill="none" stroke="black"></path><path d="M92.1375,680.4C296.325,680.4,444.528,714.42,500.5125,340.2" stroke-width="7.615992712327216" style="stroke: var(--c1); fill: none;" fill="none" stroke="black"></path><g class="d-note" transform="translate(500.5125,340.2)"><path d="M0,0c0,0,50.895,-340.2,50.895,-340.2" stroke-width="7.615992712327216" style="stroke: var(--c1);" fill="none" stroke="black"></path></g><path d="M551.4075,0C572.255,3.11885,585.63,34.02,653.67,25.515" stroke-width="7.615992712327216" style="stroke: var(--c1); fill: none;" fill="none" stroke="black"></path><g class="d-note" transform="translate(653.67,25.515)"><path d="M0,0c0,0,42.525,340.2,42.525,340.2" stroke-width="7.615992712327216" style="stroke: var(--c1);" fill="none" stroke="black"></path></g><g class="d-note" transform="translate(696.195,365.715)"><path d="M0,0c0,0,42.525,-340.2,42.525,-340.2" stroke-width="7.615992712327216" style="stroke: var(--c1);" fill="none" stroke="black"></path></g><path d="M738.72,25.515C942.84,51.03,1124.8736,13.29037,1289.8575,0" stroke-width="7.615992712327216" style="stroke: var(--c1); fill: none;" fill="none" stroke="black"></path><g class="d-note" transform="translate(327.645,2409.75)"><path d="M0,0c0,0,737.1,0,737.1,0" stroke-width="7.615992712327216" style="stroke: var(--c1);" fill="none" stroke="black"></path></g><g class="d-note" transform="translate(0,0)"><ellipse rx="12.693321187212028" ry="12.693321187212028" fill="var(--c1)"></ellipse><text font-size="101.54656949769623" text-anchor="start" transform="rotate(0) translate(25.38664,35.5413)" style="fill: var(--c1);">v</text></g><g class="d-note" transform="translate(151.84155,0)"><ellipse rx="12.693321187212028" ry="12.693321187212028" fill="var(--c1)"></ellipse><text font-size="101.54656949769623" text-anchor="start" transform="rotate(0) translate(25.38664,35.5413)" style="fill: var(--c1);">o</text></g><g class="d-note" transform="translate(-28.35,0)"><ellipse rx="12.693321187212028" ry="12.693321187212028" fill="var(--c1)"></ellipse><text font-size="101.54656949769623" text-anchor="start" transform="rotate(0) translate(25.38664,35.5413)" style="fill: var(--c1);">t</text></g><g class="d-note" transform="translate(224.49597,1303.62439)"><ellipse rx="12.693321187212028" ry="12.693321187212028" fill="var(--c1)"></ellipse><text font-size="101.54656949769623" text-anchor="start" transform="rotate(0) translate(25.38664,35.5413)" style="fill: var(--c1);">k1m</text></g><g class="d-note" transform="translate(247.22571,1443.53845)"><ellipse rx="12.693321187212028" ry="12.693321187212028" fill="var(--c1)"></ellipse><text font-size="101.54656949769623" text-anchor="start" transform="rotate(0) translate(25.38664,35.5413)" style="fill: var(--c1);">l1m</text></g><g class="d-note" transform="translate(1173.93518,1301.24829)"><ellipse rx="12.693321187212028" ry="12.693321187212028" fill="var(--c1)"></ellipse><text font-size="101.54656949769623" text-anchor="start" transform="rotate(0) translate(25.38664,35.5413)" style="fill: var(--c1);">k2m</text></g><g class="d-note" transform="translate(1148.08362,1440.6189)"><ellipse rx="12.693321187212028" ry="12.693321187212028" fill="var(--c1)"></ellipse><text font-size="101.54656949769623" text-anchor="start" transform="rotate(0) translate(25.38664,35.5413)" style="fill: var(--c1);">l2m</text></g></svg>