<svg viewBox="-2005.21 -939.705 2652.353 3388.906" style="width: 100%; height: 100%;"><g class="d-note" transform="translate(0,0)"><ellipse rx="9.540839608288897" ry="9.540839608288897" fill="var(--c1)"></ellipse><text font-size="76.32671686631117" text-anchor="start" transform="rotate(0) translate(19.08168,26.71435)" style="fill: var(--c1);">A</text></g><g class="d-note" transform="translate(0,737.1)"><ellipse rx="9.540839608288897" ry="9.540839608288897" fill="var(--c1)"></ellipse><text font-size="76.32671686631117" text-anchor="start" transform="rotate(0) translate(19.08168,26.71435)" style="fill: var(--c1);">B</text></g><g class="d-note" transform="translate(-770.80722,737.1)"><ellipse rx="9.540839608288897" ry="9.540839608288897" fill="var(--c1)"></ellipse><text font-size="76.32671686631117" text-anchor="start" transform="rotate(0) translate(19.08168,26.71435)" style="fill: var(--c1);">C</text></g><g class="d-note" transform="translate(-1156.21083,737.1)"><ellipse rx="9.540839608288897" ry="9.540839608288897" fill="var(--c1)"></ellipse><text font-size="76.32671686631117" text-anchor="start" transform="rotate(0) translate(19.08168,26.71435)" style="fill: var(--c1);">x</text></g><g class="d-note" transform="translate(-770.80722,0)"><ellipse rx="9.540839608288897" ry="9.540839608288897" fill="var(--c1)"></ellipse><text font-size="76.32671686631117" text-anchor="start" transform="rotate(0) translate(19.08168,26.71435)" style="fill: var(--c1);">D</text></g><g class="d-note" transform="translate(0,340.2)"><ellipse rx="9.540839608288897" ry="9.540839608288897" fill="var(--c1)"></ellipse><text font-size="76.32671686631117" text-anchor="start" transform="rotate(0) translate(19.08168,26.71435)" style="fill: var(--c1);">F</text></g><g class="d-note" transform="translate(-770.80722,340.2)"><ellipse rx="9.540839608288897" ry="9.540839608288897" fill="var(--c1)"></ellipse><text font-size="76.32671686631117" text-anchor="start" transform="rotate(0) translate(19.08168,26.71435)" style="fill: var(--c1);">G</text></g><g class="d-note" transform="translate(-758.81171,0)"><ellipse rx="9.540839608288897" ry="9.540839608288897" fill="var(--c1)"></ellipse><text font-size="76.32671686631117" text-anchor="start" transform="rotate(0) translate(19.08168,26.71435)" style="fill: var(--c1);">h</text></g><g class="d-note" transform="translate(-784.80198,737.1)"><ellipse rx="9.540839608288897" ry="9.540839608288897" fill="var(--c1)"></ellipse><text font-size="76.32671686631117" text-anchor="start" transform="rotate(0) translate(19.08168,26.71435)" style="fill: var(--c1);">i</text></g><g class="d-note" transform="translate(-586.61041,737.1)"><ellipse rx="9.540839608288897" ry="9.540839608288897" fill="var(--c1)"></ellipse><text font-size="76.32671686631117" text-anchor="start" transform="rotate(0) translate(19.08168,26.71435)" style="fill: var(--c1);">j</text></g><g class="d-note" transform="translate(-629.13541,0)"><ellipse rx="9.540839608288897" ry="9.540839608288897" fill="var(--c1)"></ellipse><text font-size="76.32671686631117" text-anchor="start" transform="rotate(0) translate(19.08168,26.71435)" style="fill: var(--c1);">d1</text></g><g class="d-note" transform="translate(-544.08541,0)"><ellipse rx="9.540839608288897" ry="9.540839608288897" fill="var(--c1)"></ellipse><text font-size="76.32671686631117" text-anchor="start" transform="rotate(0) translate(19.08168,26.71435)" style="fill: var(--c1);">d2</text></g><g class="d-note" transform="translate(-586.61041,340.2)"><ellipse rx="9.540839608288897" ry="9.540839608288897" fill="var(--c1)"></ellipse><text font-size="76.32671686631117" text-anchor="start" transform="rotate(0) translate(19.08168,26.71435)" style="fill: var(--c1);">d3</text></g><g class="d-note" transform="translate(-11.99551,0)"><ellipse rx="9.540839608288897" ry="9.540839608288897" fill="var(--c1)"></ellipse><text font-size="76.32671686631117" text-anchor="start" transform="rotate(0) translate(19.08168,26.71435)" style="fill: var(--c1);">a</text></g><g class="d-note" transform="translate(-586.61041,2409.75)"><ellipse rx="9.540839608288897" ry="9.540839608288897" fill="var(--c1)"></ellipse><text font-size="76.32671686631117" text-anchor="start" transform="rotate(0) translate(19.08168,26.71435)" style="fill: var(--c1);">E</text></g><g class="d-note" transform="translate(-983.51041,2409.75)"><ellipse rx="9.540839608288897" ry="9.540839608288897" fill="var(--c1)"></ellipse><text font-size="76.32671686631117" text-anchor="start" transform="rotate(0) translate(19.08168,26.71435)" style="fill: var(--c1);">e1</text></g><g class="d-note" transform="translate(-189.71041,2409.75)"><ellipse rx="9.540839608288897" ry="9.540839608288897" fill="var(--c1)"></ellipse><text font-size="76.32671686631117" text-anchor="start" transform="rotate(0) translate(19.08168,26.71435)" style="fill: var(--c1);">e2</text></g><path d="M-983.51041,2409.75C-983.51041,1138.536,-1156.21083,737.1,-1156.21083,737.1" stroke-width="5.724503764973338" style="stroke: var(--c1); fill: none;" fill="none" stroke="black"></path><g class="d-note" transform="translate(-17.01,737.1)"><ellipse rx="9.540839608288897" ry="9.540839608288897" fill="var(--c1)"></ellipse><text font-size="76.32671686631117" text-anchor="start" transform="rotate(0) translate(19.08168,26.71435)" style="fill: var(--c1);">m</text></g><path d="M-189.71041,2409.75C-189.71041,1138.536,-17.01,737.1,-17.01,737.1" stroke-width="5.724503764973338" style="stroke: var(--c1); fill: none;" fill="none" stroke="black"></path><path d="M-189.71041,2409.75C-189.71041,971.271,0,1003.59,0,340.2" stroke-width="5.724503764973338" style="stroke: var(--c1); fill: none;" fill="none" stroke="black"></path><path d="M0,340.2C0,192.78,-11.99551,0,-11.99551,0" stroke-width="5.724503764973338" style="stroke: var(--c1); fill: none;" fill="none" stroke="black"></path><path d="M-1156.21083,737.1C-886.4283,737.1,-780.60355,618.03,-770.80722,340.2" stroke-width="5.724503764973338" style="stroke: var(--c1); fill: none;" fill="none" stroke="black"></path><g class="d-note" transform="translate(-770.80722,340.2)"><path d="M0,0c0,0,11.99551,-340.2,11.99551,-340.2" stroke-width="5.724503764973338" style="stroke: var(--c1);" fill="none" stroke="black"></path></g><path d="M-758.81171,0C-656.75171,3.59865,-697.17541,8.505,-629.13541,0" stroke-width="5.724503764973338" style="stroke: var(--c1); fill: none;" fill="none" stroke="black"></path><g class="d-note" transform="translate(-629.13541,0)"><path d="M0,0c0,0,42.525,340.2,42.525,340.2" stroke-width="5.724503764973338" style="stroke: var(--c1);" fill="none" stroke="black"></path></g><g class="d-note" transform="translate(-586.61041,340.2)"><path d="M0,0c0,0,42.525,-340.2,42.525,-340.2" stroke-width="5.724503764973338" style="stroke: var(--c1);" fill="none" stroke="black"></path></g><path d="M-544.08541,0C-339.96541,25.515,-114.05551,3.59865,-11.99551,0" stroke-width="5.724503764973338" style="stroke: var(--c1); fill: none;" fill="none" stroke="black"></path><g class="d-note" transform="translate(-983.51041,2409.75)"><path d="M0,0c0,0,793.8,0,793.8,0" stroke-width="5.724503764973338" style="stroke: var(--c1);" fill="none" stroke="black"></path></g></svg>