<svg viewBox="-641.621 -106.684 2427.582 1736.535">
	<g class="d-note" transform="translate(0,0)">
		<ellipse rx="1" ry="1" fill="black">
		</ellipse>
		<text font-size="5" text-anchor="start" fill="black" transform="rotate(0) translate(2,1.75)">A</text>
	</g>
	<g class="d-note" transform="translate(0,1530.9)">
		<ellipse rx="1" ry="1" fill="black">
		</ellipse>
		<text font-size="5" text-anchor="start" fill="black" transform="rotate(0) translate(2,1.75)">B</text>
	</g>
	<g class="d-note" transform="translate(0,0)">
		<path d="M0,0c0,0,0,1530.9,0,1530.9" stroke-width="1" stroke="black">
		</path>
	</g>
	<g class="d-note" transform="translate(623.7,0)">
		<ellipse rx="1" ry="1" fill="black">
		</ellipse>
		<text font-size="5" text-anchor="start" fill="black" transform="rotate(0) translate(2,1.75)">C</text>
	</g>
	<g class="d-note" transform="translate(0,0)">
		<path d="M0,0c0,0,623.7,0,623.7,0" stroke-width="1" stroke="black">
		</path>
	</g>
	<g class="d-note" transform="translate(623.7,0)">
		<path d="M0,0c0,0,0,504.063,0,504.063" stroke-width="1" stroke="black">
		</path>
	</g>
	<g class="d-note" transform="translate(0,56.7)">
		<ellipse rx="1" ry="1" fill="black">
		</ellipse>
		<text font-size="5" text-anchor="start" fill="black" transform="rotate(0) translate(2,1.75)">D</text>
	</g>
	<g class="d-note" transform="translate(0,56.7)">
		<path d="M0,0c0,0,288.036,0,288.036,0" stroke-width="1" stroke="black">
		</path>
	</g>
	<g class="d-note" transform="translate(610.659,1530.9)">
		<ellipse rx="1" ry="1" fill="black">
		</ellipse>
		<text font-size="5" text-anchor="start" fill="black" transform="rotate(0) translate(2,1.75)">E</text>
	</g>
	<g class="d-note" transform="translate(610.659,1544.40169)">
		<ellipse rx="1" ry="1" fill="black">
		</ellipse>
		<text font-size="5" text-anchor="start" fill="black" transform="rotate(0) translate(2,1.75)">F</text>
	</g>
	<g class="d-note" transform="translate(198.45,1530.9)">
		<ellipse rx="1" ry="1" fill="black">
		</ellipse>
		<text font-size="5" text-anchor="start" fill="black" transform="rotate(0) translate(2,1.75)">G</text>
	</g>
	<g class="d-note" transform="translate(270.459,1530.9)">
		<ellipse rx="1" ry="1" fill="black">
		</ellipse>
		<text font-size="5" text-anchor="start" fill="black" transform="rotate(0) translate(2,1.75)">H</text>
	</g>
	<g class="d-note" transform="translate(234.4545,1530.9)">
		<ellipse rx="1" ry="1" fill="black">
		</ellipse>
		<text font-size="5" text-anchor="start" fill="black" transform="rotate(0) translate(2,1.75)">I</text>
	</g>
	<g class="d-note" transform="translate(0,935.55)">
		<ellipse rx="1" ry="1" fill="black">
		</ellipse>
		<text font-size="5" text-anchor="start" fill="black" transform="rotate(0) translate(2,1.75)">J</text>
	</g>
	<g class="d-note" transform="translate(748.58175,935.55)">
		<ellipse rx="1" ry="1" fill="black">
		</ellipse>
		<text font-size="5" text-anchor="start" fill="black" transform="rotate(0) translate(2,1.75)">K</text>
	</g>
	<g class="d-note" transform="translate(0,935.55)">
		<path d="M0,0c0,0,748.58175,0,748.58175,0" stroke-width="1" stroke="black">
		</path>
	</g>
	<g class="d-note" transform="translate(234.4545,935.55)">
		<ellipse rx="1" ry="1" fill="black">
		</ellipse>
		<text font-size="5" text-anchor="start" fill="black" transform="rotate(0) translate(2,1.75)">L</text>
	</g>
	<g class="d-note" transform="translate(234.4545,989.55675)">
		<ellipse rx="1" ry="1" fill="black">
		</ellipse>
		<text font-size="5" text-anchor="start" fill="black" transform="rotate(0) translate(2,1.75)">M</text>
	</g>
	<g class="d-note" transform="translate(234.4545,989.55675)">
		<path d="M0,0c0,0,36.0045,550.34438,36.0045,550.34438" stroke-width="1" stroke="black">
		</path>
	</g>
	<g class="d-note" transform="translate(234.4545,989.55675)">
		<path d="M0,0c0,0,-36.0045,550.34438,-36.0045,550.34438" stroke-width="1" stroke="black">
		</path>
	</g>
	<g class="d-note" transform="translate(0,1530.9)">
		<path d="M0,0c0,0,198.45,9.00113,198.45,9.00113" stroke-width="1" stroke="black">
		</path>
	</g>
	<g class="d-note" transform="translate(270.459,1539.90113)">
		<path d="M0,0c0,0,340.2,4.50056,340.2,4.50056" stroke-width="1" stroke="black">
		</path>
	</g>
	<g class="d-note" transform="translate(283.5,0)">
		<ellipse rx="1" ry="1" fill="black">
		</ellipse>
		<text font-size="5" text-anchor="start" fill="black" transform="rotate(0) translate(2,1.75)">O</text>
	</g>
	<g class="d-note" transform="translate(595.8637,92.50732)">
		<ellipse rx="1" ry="1" fill="black">
		</ellipse>
		<text font-size="5" text-anchor="start" fill="black" transform="rotate(0) translate(2,1.75)">N</text>
	</g>
	<g class="d-note" transform="translate(0,1530.9)">
		<path d="M0,0c0,0,595.8637,-1438.39268,595.8637,-1438.39268" stroke-width="1" stroke="black">
		</path>
	</g>
	<g class="d-note" transform="translate(283.5,0)">
		<path d="M0,0c0,0,312.3637,92.50732,312.3637,92.50732" stroke-width="1" stroke="black">
		</path>
	</g>
	<g class="d-note" transform="translate(283.5,0)">
		<path d="M0,0c0,0,-46.25366,156.18185,-46.25366,156.18185" stroke-width="1" stroke="black">
		</path>
	</g>
	<g class="d-note" transform="translate(266.70815,56.7)">
		<ellipse rx="1" ry="1" fill="black">
		</ellipse>
		<text font-size="5" text-anchor="start" fill="black" transform="rotate(0) translate(2,1.75)">P</text>
	</g>
	<g class="d-note" transform="translate(241.24912,31.24097)">
		<ellipse rx="1" ry="1" fill="black">
		</ellipse>
		<text font-size="5" text-anchor="start" fill="black" transform="rotate(0) translate(2,1.75)">Q</text>
	</g>
	<g class="d-note" transform="translate(266.70815,56.7)">
		<path d="M0,0c0,0,-25.45903,-25.45903,-25.45903,-25.45903" stroke-width="1" stroke="black">
		</path>
	</g>
	<g class="d-note" transform="translate(439.68185,46.25366)">
		<ellipse rx="1" ry="1" fill="black">
		</ellipse>
		<text font-size="5" text-anchor="start" fill="black" transform="rotate(0) translate(2,1.75)">R</text>
	</g>
	<g class="d-note" transform="translate(393.75681,257.34263)">
		<ellipse rx="1" ry="1" fill="black">
		</ellipse>
		<text font-size="5" text-anchor="start" fill="black" transform="rotate(0) translate(2,1.75)">S</text>
	</g>
	<g class="d-note" transform="translate(442.23782,37.62306)">
		<ellipse rx="1" ry="1" fill="black">
		</ellipse>
		<text font-size="5" text-anchor="start" fill="black" transform="rotate(0) translate(2,1.75)">T</text>
	</g>
	<g class="d-note" transform="translate(442.23782,37.62306)">
		<ellipse rx="1" ry="1" fill="black">
		</ellipse>
		<text font-size="5" text-anchor="start" fill="black" transform="rotate(0) translate(2,1.75)">U</text>
	</g>
	<g class="d-note" transform="translate(442.23782,37.62306)">
		<path d="M0,0c0,0,-48.48101,219.71957,-48.48101,219.71957" stroke-width="1" stroke="black">
		</path>
	</g>
	<g class="d-note" transform="translate(442.23782,37.62306)">
		<path d="M0,0c0,0,-48.48101,219.71957,-48.48101,219.71957" stroke-width="1" stroke="black">
		</path>
	</g>
	<g class="d-note" transform="translate(748.58175,971.5545)">
		<ellipse rx="1" ry="1" fill="black">
		</ellipse>
		<text font-size="5" text-anchor="start" fill="black" transform="rotate(0) translate(2,1.75)">V</text>
	</g>
	<g class="d-note" transform="translate(0,550.13175)">
		<ellipse rx="1" ry="1" fill="black">
		</ellipse>
		<text font-size="5" text-anchor="start" fill="black" transform="rotate(0) translate(2,1.75)">W</text>
	</g>
	<g class="d-note" transform="translate(565.65338,550.13175)">
		<ellipse rx="1" ry="1" fill="black">
		</ellipse>
		<text font-size="5" text-anchor="start" fill="black" transform="rotate(0) translate(2,1.75)">X</text>
	</g>
	<path d="M595.8637,92.50732C595.8637,92.50732,565.65338,389.9632,565.65338,550.13175" stroke="black" fill="none">
	</path>
	<path d="M565.65338,550.13175C565.65338,710.3003,611.38547,971.5545,748.58175,971.5545" stroke="black" fill="none">
	</path>
	<g class="d-note" transform="translate(748.58175,971.5545)">
		<path d="M0,0c0,0,-137.92275,572.84719,-137.92275,572.84719" stroke-width="1" stroke="black">
		</path>
	</g>
	<path d="M0,56.7C120.01867,56.7,270.06652,45.36,283.5,0" stroke="black" fill="none">
	</path>
</svg>
