<svg viewBox="-889.536 -323.938 2219.205 1471.319">
	<g class="d-note" transform="translate(0,0)">
		<ellipse rx="1" ry="1" fill="black">
		</ellipse>
		<text font-size="5" text-anchor="start" fill="black" transform="rotate(0) translate(2,1.75)">A</text>
	</g>
	<g class="d-note" transform="translate(0,1644.3)">
		<ellipse rx="1" ry="1" fill="black">
		</ellipse>
		<text font-size="5" text-anchor="start" fill="black" transform="rotate(0) translate(2,1.75)">B</text>
	</g>
	<g class="d-note" transform="translate(0,0)">
		<path d="M0,0c0,0,0,1644.3,0,1644.3" stroke-width="1" stroke="black">
		</path>
	</g>
	<g class="d-note" transform="translate(0,414.05175)">
		<ellipse rx="1" ry="1" fill="black">
		</ellipse>
		<text font-size="5" text-anchor="start" fill="black" transform="rotate(0) translate(2,1.75)">C</text>
	</g>
	<g class="d-note" transform="translate(0,957.16688)">
		<ellipse rx="1" ry="1" fill="black">
		</ellipse>
		<text font-size="5" text-anchor="start" fill="black" transform="rotate(0) translate(2,1.75)">D</text>
	</g>
	<g class="d-note" transform="translate(-283.5,0)">
		<path d="M0,0c0,0,567,0,567,0" stroke-width="1" stroke="black">
		</path>
	</g>
	<g class="d-note" transform="translate(-510.3,414.05175)">
		<path d="M0,0c0,0,1020.6,0,1020.6,0" stroke-width="1" stroke="black">
		</path>
	</g>
	<g class="d-note" transform="translate(-425.25,957.16688)">
		<path d="M0,0c0,0,850.5,0,850.5,0" stroke-width="1" stroke="black">
		</path>
	</g>
	<g class="d-note" transform="translate(-283.5,1644.3)">
		<path d="M0,0c0,0,567,0,567,0" stroke-width="1" stroke="black">
		</path>
	</g>
	<g class="d-note" transform="translate(-850.5,414.05175)">
		<ellipse rx="1" ry="1" fill="black">
		</ellipse>
		<text font-size="5" text-anchor="start" fill="black" transform="rotate(0) translate(2,1.75)">E</text>
	</g>
	<g class="d-note" transform="translate(850.5,414.05175)">
		<ellipse rx="1" ry="1" fill="black">
		</ellipse>
		<text font-size="5" text-anchor="start" fill="black" transform="rotate(0) translate(2,1.75)">F</text>
	</g>
	<g class="d-note" transform="translate(-490.455,1644.3)">
		<ellipse rx="1" ry="1" fill="black">
		</ellipse>
		<text font-size="5" text-anchor="start" fill="black" transform="rotate(0) translate(2,1.75)">G</text>
	</g>
	<g class="d-note" transform="translate(490.455,1644.3)">
		<ellipse rx="1" ry="1" fill="black">
		</ellipse>
		<text font-size="5" text-anchor="start" fill="black" transform="rotate(0) translate(2,1.75)">H</text>
	</g>
	<g class="d-note" transform="translate(-850.5,414.05175)">
		<path d="M0,0c0,0,360.045,1230.24825,360.045,1230.24825" stroke-width="1" stroke="black">
		</path>
	</g>
	<g class="d-note" transform="translate(850.5,414.05175)">
		<path d="M0,0c0,0,-360.045,1230.24825,-360.045,1230.24825" stroke-width="1" stroke="black">
		</path>
	</g>
	<g class="d-note" transform="translate(-637.875,414.05175)">
		<ellipse rx="1" ry="1" fill="black">
		</ellipse>
		<text font-size="5" text-anchor="start" fill="black" transform="rotate(0) translate(2,1.75)">K</text>
	</g>
	<g class="d-note" transform="translate(637.875,414.05175)">
		<ellipse rx="1" ry="1" fill="black">
		</ellipse>
		<text font-size="5" text-anchor="start" fill="black" transform="rotate(0) translate(2,1.75)">L</text>
	</g>
	<g class="d-note" transform="translate(-212.625,0)">
		<ellipse rx="1" ry="1" fill="black">
		</ellipse>
		<text font-size="5" text-anchor="start" fill="black" transform="rotate(0) translate(2,1.75)">M</text>
	</g>
	<g class="d-note" transform="translate(-637.875,351.04388)">
		<ellipse rx="1" ry="1" fill="black">
		</ellipse>
		<text font-size="5" text-anchor="start" fill="black" transform="rotate(0) translate(2,1.75)">O</text>
	</g>
	<g class="d-note" transform="translate(637.875,369.04613)">
		<ellipse rx="1" ry="1" fill="black">
		</ellipse>
		<text font-size="5" text-anchor="start" fill="black" transform="rotate(0) translate(2,1.75)">R</text>
	</g>
	<g class="d-note" transform="translate(212.625,0)">
		<ellipse rx="1" ry="1" fill="black">
		</ellipse>
		<text font-size="5" text-anchor="start" fill="black" transform="rotate(0) translate(2,1.75)">N</text>
	</g>
	<g class="d-note" transform="translate(-212.625,45.00563)">
		<ellipse rx="1" ry="1" fill="black">
		</ellipse>
		<text font-size="5" text-anchor="start" fill="black" transform="rotate(0) translate(2,1.75)">P</text>
	</g>
	<g class="d-note" transform="translate(212.625,27.00338)">
		<ellipse rx="1" ry="1" fill="black">
		</ellipse>
		<text font-size="5" text-anchor="start" fill="black" transform="rotate(0) translate(2,1.75)">Q</text>
	</g>
	<path d="M-850.5,414.05175C-552.825,414.05175,-354.375,0,0,0" stroke="black" fill="none">
	</path>
	<path d="M0,0C496.125,0,439.425,414.05175,850.5,414.05175" stroke="black" fill="none">
	</path>
</svg>
